<svg width="38" height="38" viewBox="0 0 38 38" fill="none" xmlns="http://www.w3.org/2000/svg">
<path d="M9.625 21C9.625 20.4843 9.62671 20.0007 9.63086 19.5479C9.24228 19.5535 8.94243 19.5645 8.69629 19.5977C8.31779 19.6486 8.19946 19.7311 8.13379 19.7969L8.13184 19.7998C8.06516 19.8663 7.98267 19.9845 7.93164 20.3633C7.87719 20.7676 7.875 21.3168 7.875 22.167C7.875 23.017 7.87718 23.5663 7.93164 23.9707C7.96994 24.255 8.02578 24.3921 8.0791 24.4707L8.13086 24.5332L8.13282 24.5352C8.19922 24.6017 8.31811 24.6843 8.69727 24.7354C8.94328 24.7685 9.2428 24.7795 9.63086 24.7852C9.62671 24.3324 9.625 23.8486 9.625 23.333V21ZM31.208 22.167C31.208 22.9668 31.2105 23.6548 31.1367 24.2031C31.0595 24.7763 30.8842 25.325 30.4385 25.7705C29.9928 26.2172 29.4438 26.3925 28.8701 26.4697C28.5173 26.5172 28.1066 26.5297 27.6455 26.5352C27.6268 26.802 27.6041 27.0536 27.5723 27.29C27.4311 28.3398 27.1279 29.223 26.4258 29.9248L26.4268 29.9258C25.7248 30.6285 24.8402 30.931 23.79 31.0723C22.765 31.2101 21.4578 31.208 19.833 31.208H17.5C15.8751 31.208 14.568 31.2101 13.543 31.0723C12.4928 30.931 11.6082 30.6285 10.9063 29.9258V29.9248C10.2046 29.2231 9.90187 28.3394 9.76074 27.29C9.72895 27.0536 9.70519 26.8021 9.68653 26.5352C9.22601 26.5296 8.81535 26.5172 8.46289 26.4697C7.88933 26.3924 7.33921 26.2182 6.89356 25.7715L6.89453 25.7705C6.44874 25.3255 6.2744 24.7768 6.19727 24.2041C6.12343 23.6558 6.125 22.9674 6.125 22.167C6.125 21.3666 6.12345 20.6781 6.19727 20.1299C6.27457 19.5561 6.44886 19.0062 6.89551 18.5605C7.34053 18.1148 7.8902 17.9404 8.46289 17.8633C8.81537 17.8158 9.22578 17.8024 9.68653 17.7969C9.70519 17.5303 9.72898 17.2791 9.76074 17.043C9.90197 15.9928 10.2045 15.1082 10.9072 14.4063C11.609 13.7041 12.4932 13.4019 13.543 13.2607C14.568 13.1229 15.8751 13.125 17.5 13.125H19.833C21.4578 13.125 22.765 13.1229 23.79 13.2607C24.8397 13.4019 25.724 13.7042 26.4258 14.4063C27.1285 15.1082 27.431 15.9928 27.5723 17.043C27.604 17.2791 27.6269 17.5304 27.6455 17.7969C28.107 17.8024 28.5182 17.8158 28.8711 17.8633C29.4439 17.9404 29.9934 18.1145 30.4385 18.5605L30.5928 18.7324C30.9266 19.1442 31.0691 19.6278 31.1367 20.1299C31.2106 20.6783 31.208 21.3669 31.208 22.167ZM11.375 23.333C11.375 25.0071 11.3767 26.1754 11.4951 27.0566C11.6102 27.9126 11.821 28.3661 12.1436 28.6885L12.1445 28.6895C12.4669 29.0122 12.9202 29.2227 13.7764 29.3379C14.6576 29.4564 15.8257 29.458 17.5 29.458H19.833C21.5071 29.458 22.6754 29.4564 23.5566 29.3379C24.4127 29.2228 24.8661 29.0121 25.1885 28.6895L25.1895 28.6885C25.5121 28.3661 25.7228 27.9127 25.8379 27.0566C25.9564 26.1754 25.958 25.0071 25.958 23.333V21C25.958 19.3257 25.9564 18.1576 25.8379 17.2764C25.7227 16.4202 25.5122 15.9669 25.1895 15.6445L25.1885 15.6436C24.8661 15.321 24.4126 15.1102 23.5566 14.9951C22.6754 14.8767 21.5071 14.875 19.833 14.875H17.5C15.8257 14.875 14.6576 14.8766 13.7764 14.9951C12.9203 15.1102 12.4669 15.3209 12.1445 15.6436L12.1436 15.6445C11.8209 15.9669 11.6102 16.4203 11.4951 17.2764C11.3766 18.1576 11.375 19.3257 11.375 21V23.333ZM27.708 23.333C27.708 23.8486 27.7063 24.3324 27.7022 24.7852C28.0906 24.7795 28.3906 24.7685 28.6367 24.7354C29.0155 24.6843 29.1338 24.6017 29.2002 24.5352L29.2022 24.5342C29.2687 24.4678 29.3513 24.3489 29.4023 23.9697C29.4568 23.5653 29.458 23.0164 29.458 22.167C29.458 21.3174 29.4568 20.7677 29.4023 20.3633C29.3513 19.9848 29.2686 19.8663 29.2022 19.7998L29.2002 19.7969C29.1346 19.731 29.0166 19.6487 28.6377 19.5977C28.3914 19.5645 28.0911 19.5535 27.7022 19.5479C27.7063 20.0007 27.708 20.4843 27.708 21V23.333Z" fill="#AFB6CE"/>
<path d="M19.5352 8.66309C19.5152 8.46292 19.4267 8.27435 19.2832 8.13086C19.1397 7.98737 18.9511 7.89887 18.751 7.87891L18.6641 7.875C18.432 7.875 18.209 7.96677 18.0449 8.13086C17.8808 8.29495 17.7891 8.51794 17.7891 8.75L17.793 8.83691C17.8129 9.03708 17.9014 9.22565 18.0449 9.36914C18.209 9.53323 18.432 9.625 18.6641 9.625C18.8961 9.625 19.1191 9.53323 19.2832 9.36914C19.4473 9.20505 19.5391 8.98206 19.5391 8.75L19.5352 8.66309ZM21.2891 8.75C21.2891 9.44619 21.0128 10.1142 20.5205 10.6064C20.0282 11.0987 19.3603 11.375 18.6641 11.375C17.9679 11.375 17.2999 11.0987 16.8076 10.6064C16.3153 10.1142 16.0391 9.44619 16.0391 8.75C16.0391 8.05381 16.3153 7.38584 16.8076 6.89355C17.2999 6.40127 17.9679 6.125 18.6641 6.125L18.9238 6.1377C19.5246 6.19742 20.0898 6.46288 20.5205 6.89355C21.0128 7.38584 21.2891 8.05381 21.2891 8.75Z" fill="#AFB6CE"/>
<path d="M14.2891 21V19.833C14.2892 19.3499 14.6809 18.958 15.1641 18.958C15.6472 18.958 16.0389 19.3499 16.0391 19.833V21C16.0391 21.4832 15.6473 21.875 15.1641 21.875C14.6808 21.875 14.2891 21.4832 14.2891 21ZM21.2891 21V19.833C21.2892 19.3499 21.6809 18.958 22.1641 18.958C22.6472 18.958 23.0389 19.3499 23.0391 19.833V21C23.0391 21.4832 22.6473 21.875 22.1641 21.875C21.6808 21.875 21.2891 21.4832 21.2891 21ZM17.7891 14V10.5C17.7891 10.0168 18.1808 9.625 18.6641 9.625C19.1473 9.625 19.5391 10.0168 19.5391 10.5V14C19.5391 14.4832 19.1473 14.875 18.6641 14.875C18.1808 14.875 17.7891 14.4832 17.7891 14Z" fill="#AFB6CE"/>
<path d="M20.4812 24.3768C20.8675 24.0933 21.411 24.1732 21.699 24.5574C21.9885 24.9441 21.9098 25.4923 21.5232 25.782L20.9988 25.0818C21.4779 25.721 21.5189 25.777 21.5223 25.782V25.783L21.5203 25.784C21.5194 25.7846 21.5184 25.7852 21.5174 25.7859C21.5152 25.7875 21.5131 25.7899 21.5105 25.7918C21.5055 25.7955 21.4996 25.7998 21.493 25.8045C21.4794 25.814 21.4623 25.8255 21.4422 25.8387C21.4019 25.8651 21.3478 25.8978 21.2811 25.9353C21.1476 26.0104 20.9617 26.1035 20.7225 26.1932C20.2421 26.3733 19.5543 26.5398 18.6648 26.5398C17.7756 26.5398 17.0885 26.3732 16.6082 26.1932C16.3688 26.1034 16.1821 26.0104 16.0486 25.9353C15.9821 25.8979 15.9287 25.865 15.8885 25.8387C15.8683 25.8255 15.8512 25.814 15.8377 25.8045C15.831 25.7998 15.8252 25.7955 15.8201 25.7918C15.8176 25.79 15.8154 25.7875 15.8133 25.7859C15.8122 25.7851 15.8103 25.7847 15.8094 25.784L15.8074 25.782C15.4208 25.4922 15.342 24.9441 15.6316 24.5574C15.9214 24.1708 16.4696 24.092 16.8562 24.3816L16.8523 24.3777C16.851 24.3768 16.8494 24.3765 16.8484 24.3758V24.3748C16.8568 24.3803 16.8765 24.3928 16.907 24.41C16.9681 24.4443 17.0731 24.4985 17.2225 24.5545C17.5199 24.666 17.9994 24.7898 18.6648 24.7898C19.3305 24.7898 19.8107 24.666 20.1082 24.5545C20.2576 24.4984 20.3626 24.4443 20.4236 24.41C20.4541 24.3928 20.4739 24.3803 20.4822 24.3748V24.3758L20.4812 24.3768Z" fill="#AFB6CE"/>
</svg>
