<svg width="38" height="38" viewBox="0 0 38 38" fill="none" xmlns="http://www.w3.org/2000/svg">
<path d="M26.8333 9.33333H24.5V8.16667C24.5 7.85725 24.3771 7.5605 24.1583 7.34171C23.9395 7.12292 23.6428 7 23.3333 7C23.0239 7 22.7272 7.12292 22.5084 7.34171C22.2896 7.5605 22.1667 7.85725 22.1667 8.16667V9.33333H15.1667V8.16667C15.1667 7.85725 15.0437 7.5605 14.825 7.34171C14.6062 7.12292 14.3094 7 14 7C13.6906 7 13.3938 7.12292 13.175 7.34171C12.9562 7.5605 12.8333 7.85725 12.8333 8.16667V9.33333H10.5C9.57174 9.33333 8.6815 9.70208 8.02513 10.3585C7.36875 11.0148 7 11.9051 7 12.8333V26.8333C7 27.7616 7.36875 28.6518 8.02513 29.3082C8.6815 29.9646 9.57174 30.3333 10.5 30.3333H26.8333C27.7616 30.3333 28.6518 29.9646 29.3082 29.3082C29.9646 28.6518 30.3333 27.7616 30.3333 26.8333V12.8333C30.3333 11.9051 29.9646 11.0148 29.3082 10.3585C28.6518 9.70208 27.7616 9.33333 26.8333 9.33333ZM28 26.8333C28 27.1428 27.8771 27.4395 27.6583 27.6583C27.4395 27.8771 27.1428 28 26.8333 28H10.5C10.1906 28 9.89383 27.8771 9.67504 27.6583C9.45625 27.4395 9.33333 27.1428 9.33333 26.8333V18.6667H28V26.8333ZM28 16.3333H9.33333V12.8333C9.33333 12.5239 9.45625 12.2272 9.67504 12.0084C9.89383 11.7896 10.1906 11.6667 10.5 11.6667H12.8333V12.8333C12.8333 13.1428 12.9562 13.4395 13.175 13.6583C13.3938 13.8771 13.6906 14 14 14C14.3094 14 14.6062 13.8771 14.825 13.6583C15.0437 13.4395 15.1667 13.1428 15.1667 12.8333V11.6667H22.1667V12.8333C22.1667 13.1428 22.2896 13.4395 22.5084 13.6583C22.7272 13.8771 23.0239 14 23.3333 14C23.6428 14 23.9395 13.8771 24.1583 13.6583C24.3771 13.4395 24.5 13.1428 24.5 12.8333V11.6667H26.8333C27.1428 11.6667 27.4395 11.7896 27.6583 12.0084C27.8771 12.2272 28 12.5239 28 12.8333V16.3333Z" fill="#AFB6CE"/>
</svg>
