<svg preserveAspectRatio="none" width="100%" height="100%" overflow="visible" style="display: block;" viewBox="0 0 31.7825 42.3833" fill="none" xmlns="http://www.w3.org/2000/svg">
<path id="Vector" fill-rule="evenodd" clip-rule="evenodd" d="M18.5398 6.62799C18.5398 7.33043 18.2608 8.0041 17.7641 8.5008C17.2674 8.9975 16.5937 9.27654 15.8913 9.27654C15.1888 9.27654 14.5152 8.9975 14.0185 8.5008C13.5218 8.0041 13.2427 7.33043 13.2427 6.62799C13.2427 5.92556 13.5218 5.25189 14.0185 4.75519C14.5152 4.25849 15.1888 3.97945 15.8913 3.97945C16.5937 3.97945 17.2674 4.25849 17.7641 4.75519C18.2608 5.25189 18.5398 5.92556 18.5398 6.62799ZM22.3802 5.30372C22.0762 3.80691 21.2642 2.46121 20.0816 1.49462C18.899 0.528029 17.4186 0 15.8913 0C14.3639 0 12.8835 0.528029 11.7009 1.49462C10.5183 2.46121 9.70627 3.80691 9.40233 5.30372H2.64854C1.94611 5.30372 1.27244 5.58277 0.77574 6.07946C0.279042 6.57616 0 7.24983 0 7.95227V39.7348C0 40.4372 0.279042 41.1109 0.77574 41.6076C1.27244 42.1043 1.94611 42.3833 2.64854 42.3833H29.134C29.8364 42.3833 30.5101 42.1043 31.0068 41.6076C31.5035 41.1109 31.7825 40.4372 31.7825 39.7348V7.95227C31.7825 7.24983 31.5035 6.57616 31.0068 6.07946C30.5101 5.58277 29.8364 5.30372 29.134 5.30372H22.3802ZM15.8913 13.2494H9.2699V9.27654H3.97281V38.4105H27.8097V9.27654H22.5126V13.2494H15.8913ZM7.94563 20.5328C7.94563 20.006 8.15491 19.5008 8.52743 19.1282C8.89996 18.7557 9.40521 18.5464 9.93203 18.5464H21.8505C22.3773 18.5464 22.8826 18.7557 23.2551 19.1282C23.6276 19.5008 23.8369 20.006 23.8369 20.5328C23.8369 21.0597 23.6276 21.5649 23.2551 21.9374C22.8826 22.31 22.3773 22.5193 21.8505 22.5193H9.93203C9.40521 22.5193 8.89996 22.31 8.52743 21.9374C8.15491 21.5649 7.94563 21.0597 7.94563 20.5328ZM9.93203 25.1678C9.40521 25.1678 8.89996 25.3771 8.52743 25.7496C8.15491 26.1221 7.94563 26.6274 7.94563 27.1542C7.94563 27.681 8.15491 28.1863 8.52743 28.5588C8.89996 28.9313 9.40521 29.1406 9.93203 29.1406H21.8505C22.3773 29.1406 22.8826 28.9313 23.2551 28.5588C23.6276 28.1863 23.8369 27.681 23.8369 27.1542C23.8369 26.6274 23.6276 26.1221 23.2551 25.7496C22.8826 25.3771 22.3773 25.1678 21.8505 25.1678H9.93203Z" fill="var(--fill-0, #006BF9)"/>
</svg>
